<?xml version="1.0" standalone="no"?>
<!DOCTYPE svg PUBLIC "-//W3C//DTD SVG 20010904//EN"
 "http://www.w3.org/TR/2001/REC-SVG-20010904/DTD/svg10.dtd">
<svg version="1.0" xmlns="http://www.w3.org/2000/svg"
 width="1280.000000pt" height="1201.000000pt" viewBox="0 0 1280.000000 1201.000000"
 preserveAspectRatio="xMidYMid meet">
<metadata>
Created by potrace 1.15, written by Peter Selinger 2001-2017
</metadata>
<g transform="translate(0.000000,1201.000000) scale(0.100000,-0.100000)"
fill="#000000" stroke="none">
<path d="M9050 11998 c-47 -6 -98 -20 -136 -39 -33 -16 -73 -29 -88 -29 -41 0
-326 -58 -421 -85 -46 -13 -150 -51 -232 -83 -81 -33 -165 -65 -186 -72 -21
-6 -58 -27 -82 -46 -25 -18 -75 -49 -112 -68 -38 -18 -77 -44 -88 -56 -11 -12
-42 -33 -70 -47 -143 -72 -400 -325 -528 -519 -46 -71 -94 -137 -106 -148 -11
-10 -30 -43 -41 -72 -11 -30 -37 -89 -59 -131 -21 -43 -42 -93 -46 -110 -3
-18 -13 -33 -20 -33 -22 0 -32 -28 -38 -110 -4 -41 -18 -111 -32 -155 -32
-103 -55 -231 -55 -310 0 -36 -8 -86 -20 -120 -11 -32 -20 -84 -20 -117 0 -53
3 -61 37 -99 35 -39 36 -41 13 -34 -34 10 -135 62 -179 90 -20 13 -74 33 -120
45 -46 12 -103 34 -125 49 -23 16 -61 38 -86 49 -25 11 -56 27 -70 35 -31 18
-240 82 -335 101 -221 46 -415 101 -487 137 -93 47 -174 67 -492 120 -302 51
-472 59 -751 35 -361 -32 -757 -86 -880 -121 -27 -8 -105 -23 -172 -35 -67
-11 -151 -29 -188 -41 -36 -11 -107 -29 -156 -40 -50 -11 -117 -30 -149 -43
-33 -13 -74 -27 -92 -31 -18 -4 -53 -18 -78 -30 -25 -12 -88 -34 -140 -49 -52
-15 -115 -38 -139 -52 -25 -14 -120 -58 -211 -99 -92 -40 -183 -84 -202 -97
-54 -35 -97 -61 -138 -83 -21 -11 -88 -62 -149 -113 -62 -51 -130 -104 -153
-119 -40 -27 -289 -293 -418 -448 -132 -159 -346 -455 -405 -562 -78 -141
-225 -476 -254 -578 -13 -43 -36 -109 -52 -145 -29 -63 -62 -179 -82 -290 -18
-101 -19 -423 -2 -585 45 -427 110 -796 172 -970 30 -81 28 -174 -3 -240 -10
-22 -17 -51 -16 -65 4 -38 54 -274 59 -280 3 -3 37 -7 76 -10 68 -5 73 -7 86
-35 8 -16 27 -45 42 -63 16 -18 38 -52 50 -75 12 -23 28 -46 35 -50 8 -4 14
-14 14 -21 0 -7 12 -23 26 -37 15 -13 35 -43 46 -66 10 -24 23 -43 27 -43 4 0
20 -23 35 -50 15 -28 50 -78 77 -112 27 -34 49 -66 49 -73 0 -6 14 -24 31 -41
17 -16 39 -45 49 -65 45 -87 462 -599 637 -782 68 -70 123 -132 123 -138 0 -6
-11 -30 -25 -53 -14 -24 -30 -69 -36 -101 -16 -87 -25 -105 -53 -105 -17 0
-30 10 -45 35 -21 36 -92 78 -116 68 -17 -6 -45 -109 -45 -164 0 -88 51 -114
167 -85 78 19 85 15 109 -57 22 -69 40 -97 64 -97 24 0 45 28 104 139 27 50
52 91 55 91 4 0 22 -11 41 -25 26 -19 46 -25 86 -25 68 0 77 -7 354 -289 124
-126 266 -262 315 -302 127 -104 227 -201 467 -456 115 -122 276 -281 357
-353 81 -71 154 -142 161 -158 15 -29 65 -110 112 -179 15 -23 28 -45 28 -49
0 -4 11 -21 24 -38 37 -50 86 -153 86 -184 0 -28 2 -29 118 -56 212 -50 232
-63 232 -147 0 -62 -7 -77 -42 -95 -28 -14 -30 -19 -25 -56 7 -55 18 -64 64
-52 55 13 73 55 73 165 0 58 4 90 13 97 17 15 170 58 234 67 46 6 53 4 63 -15
6 -11 10 -35 8 -53 -4 -45 -34 -57 -149 -57 l-97 0 -4 -117 c-4 -132 -18 -172
-66 -192 -32 -13 -67 -4 -110 29 -39 31 -59 26 -71 -17 -21 -73 -72 -403 -69
-440 3 -34 7 -39 48 -55 34 -13 77 -17 176 -17 131 -1 172 4 339 39 50 10 112
22 140 27 68 11 78 31 70 147 -12 175 -30 235 -122 410 -15 28 -46 292 -37
308 11 17 84 46 164 64 41 9 87 23 102 30 28 15 46 57 46 111 1 34 65 180 209
468 l95 189 264 259 c145 142 323 325 396 405 206 228 363 399 456 494 l84 88
42 -35 c24 -19 46 -32 49 -28 4 3 7 46 7 93 0 119 7 152 33 148 11 -2 29 -15
40 -30 23 -31 59 -176 57 -231 -1 -51 5 -58 41 -45 57 20 95 67 108 133 6 33
19 86 27 118 16 62 11 123 -21 265 -8 35 -15 73 -15 85 0 14 30 58 74 109 41
47 81 99 89 114 8 16 33 49 54 74 34 39 69 87 108 149 6 9 25 33 43 54 17 20
32 44 32 51 0 8 18 36 40 61 22 25 40 52 40 59 0 7 9 21 21 32 12 10 37 51 56
89 20 39 42 74 49 78 8 4 14 14 14 21 0 7 13 25 29 40 16 16 35 42 42 60 7 17
22 41 34 53 12 12 34 48 50 80 29 59 47 86 101 151 17 20 38 51 47 67 8 17 44
64 80 105 35 41 71 89 80 105 8 17 42 59 74 95 103 114 103 114 178 378 61
213 85 456 92 910 3 204 8 372 10 372 17 0 168 -150 286 -285 339 -384 427
-485 495 -566 40 -48 87 -98 105 -112 18 -13 41 -42 52 -63 11 -21 39 -68 61
-104 61 -96 101 -180 120 -252 21 -75 29 -88 58 -88 51 0 94 -20 106 -51 16
-37 16 -71 0 -222 -20 -200 -20 -200 220 -195 152 3 162 2 176 -17 26 -34 28
-66 8 -102 -23 -45 -60 -63 -127 -63 -86 0 -110 44 -29 55 50 7 81 20 70 30
-9 9 -216 45 -275 48 -29 1 -57 -3 -63 -9 -15 -15 -56 -167 -70 -258 -12 -80
0 -305 21 -395 6 -25 14 -82 18 -126 l6 -80 140 2 c150 2 259 21 311 52 37 23
49 64 64 216 24 248 1 588 -55 833 -8 35 -15 106 -15 158 l0 94 58 0 c32 0 66
6 75 13 9 6 37 57 62 112 101 220 147 294 351 565 81 108 163 196 403 433 165
164 301 302 301 307 0 5 14 17 31 25 28 15 33 15 57 -1 32 -21 49 -41 62 -71
12 -30 50 -31 50 -3 0 12 -11 43 -25 70 -27 54 -34 127 -12 136 27 10 63 -15
86 -59 29 -56 65 -91 85 -84 8 3 18 23 21 44 22 125 40 196 66 257 16 37 29
72 29 76 0 28 99 207 140 255 28 31 50 60 50 65 0 5 20 32 45 60 25 28 45 55
45 61 0 5 51 64 113 130 158 169 220 241 296 344 37 50 86 111 109 137 23 27
73 114 115 200 81 167 114 262 182 538 13 52 28 113 34 135 33 128 41 241 41
560 0 311 -1 330 -26 447 -42 199 -114 426 -157 495 -14 21 -39 66 -56 98 -72
137 -107 180 -309 383 -187 189 -331 317 -409 364 -15 10 -48 33 -73 53 -25
19 -64 44 -87 55 -23 12 -45 25 -48 29 -9 15 -150 88 -233 122 -42 16 -97 43
-122 59 -25 15 -56 31 -70 34 -14 4 -72 29 -130 57 -93 43 -259 94 -425 130
-22 4 -128 8 -235 9 -107 0 -265 7 -350 15 -359 33 -846 45 -1020 23z m2151
-2583 c-10 -77 -19 -129 -20 -115 0 14 6 77 14 140 l14 115 -87 90 -87 90 92
-90 92 -90 -18 -140z m646 48 c-3 -10 -5 -2 -5 17 0 19 2 27 5 18 2 -10 2 -26
0 -35z m-8 -227 c-40 -55 -88 -106 -100 -106 -13 0 -129 69 -129 76 0 3 19 -7
43 -21 88 -55 83 -55 138 6 27 29 52 65 56 79 3 14 8 19 11 12 2 -8 -6 -28
-19 -46z m-663 -34 l-7 -68 71 -34 c38 -19 70 -38 70 -42 0 -6 -134 54 -148
67 -5 5 10 145 16 145 2 0 2 -31 -2 -68z"/>
</g>
</svg>
