<?xml version="1.0" standalone="no"?>
<!DOCTYPE svg PUBLIC "-//W3C//DTD SVG 20010904//EN"
 "http://www.w3.org/TR/2001/REC-SVG-20010904/DTD/svg10.dtd">
<svg version="1.0" xmlns="http://www.w3.org/2000/svg"
 width="1006.000000pt" height="1280.000000pt" viewBox="0 0 1006.000000 1280.000000"
 preserveAspectRatio="xMidYMid meet">
<metadata>
Created by potrace 1.15, written by Peter Selinger 2001-2017
</metadata>
<g transform="translate(0.000000,1280.000000) scale(0.100000,-0.100000)"
fill="#000000" stroke="none">
<path d="M4817 12790 c-32 -5 -73 -13 -90 -18 -20 -6 -72 -4 -142 5 -197 26
-451 2 -620 -57 -34 -12 -131 -30 -220 -40 -285 -34 -772 -144 -1063 -239
-935 -308 -1664 -864 -2125 -1624 -151 -247 -297 -584 -382 -881 -136 -474
-203 -1111 -165 -1556 109 -1255 1025 -2799 2673 -4504 340 -351 815 -801
1026 -971 109 -88 147 -128 265 -276 129 -162 219 -293 282 -414 26 -49 55
-97 65 -105 10 -8 144 -226 297 -484 l279 -468 -19 -62 c-11 -33 -34 -131 -52
-216 l-32 -154 -52 3 -52 2 2 -348 3 -348 230 -11 c127 -6 326 -14 444 -18
l214 -8 -7 214 c-3 117 -9 277 -13 356 l-6 142 -57 0 -57 0 -8 208 c-4 114 -8
221 -9 237 -1 23 63 131 289 485 159 250 322 518 363 595 78 147 195 336 290
469 37 51 140 159 292 305 629 604 1031 1028 1416 1492 1048 1266 1695 2469
1908 3549 56 284 70 441 70 775 0 331 -12 482 -59 759 -158 934 -635 1709
-1393 2263 -249 182 -635 393 -1012 553 -333 142 -732 247 -1050 275 -41 4
-117 16 -169 26 -144 30 -284 48 -421 54 -69 3 -201 10 -295 16 -132 9 -194 9
-275 -1 -130 -15 -123 -15 -190 5 -65 19 -287 28 -373 15z m-177 -47 c-8 -3
-31 -14 -50 -25 l-35 -20 30 26 c17 14 39 26 50 25 14 0 16 -2 5 -6z m90
-11070 l210 -432 -19 -31 -19 -32 -276 462 c-152 254 -276 464 -276 467 0 2
38 2 85 1 l85 -3 210 -432z m130 26 c128 -393 133 -412 115 -425 -10 -8 -21
-14 -24 -14 -5 0 -391 790 -407 833 -6 15 3 17 88 17 l94 0 134 -411z m70 409
c0 -2 31 -183 69 -403 38 -220 68 -401 66 -403 -1 -2 -15 -4 -31 -5 l-28 -2
-98 300 c-54 165 -113 348 -132 408 l-34 107 94 0 c52 0 94 -1 94 -2z m218
-400 l-3 -403 -31 -3 -30 -3 -67 393 c-37 216 -68 399 -67 406 0 9 27 12 100
12 l100 0 -2 -402z m186 370 c-3 -18 -25 -154 -48 -303 l-42 -270 -42 -3 -42
-3 0 305 0 306 89 0 90 0 -5 -32z m656 27 c0 -3 -118 -191 -261 -417 -144
-227 -273 -430 -287 -452 l-25 -40 -23 30 c-13 16 -24 32 -24 36 0 3 92 192
205 419 113 227 203 415 200 417 -3 3 -7 3 -8 1 -2 -2 -95 -190 -207 -416
-112 -227 -208 -413 -214 -413 -6 0 -18 5 -26 10 -13 8 5 70 119 410 73 221
130 404 127 407 -3 3 -8 0 -10 -8 -3 -8 -58 -174 -123 -369 l-118 -355 -3 68
c-3 64 -4 67 -27 67 -14 0 -25 3 -25 8 0 4 20 137 45 295 25 159 45 293 45
298 0 5 128 9 320 9 176 0 320 -2 320 -5z m-693 -908 c43 -23 53 -75 56 -302
l2 -180 -26 -3 c-35 -4 -39 12 -39 168 0 160 -6 195 -37 215 -46 31 -133 -8
-133 -59 0 -12 11 -33 25 -46 34 -32 32 -50 -16 -95 -39 -38 -40 -42 -34 -85
10 -65 9 -90 -5 -140 -7 -25 -14 -47 -16 -49 -6 -7 -124 93 -129 111 -5 13 3
27 24 47 20 19 31 39 31 57 0 33 -35 74 -63 74 -17 0 -19 5 -13 40 9 59 53
191 75 227 24 38 42 42 171 39 66 -1 105 -7 127 -19z"/>
</g>
</svg>
