<?xml version="1.0" standalone="no"?>
<!DOCTYPE svg PUBLIC "-//W3C//DTD SVG 20010904//EN"
 "http://www.w3.org/TR/2001/REC-SVG-20010904/DTD/svg10.dtd">
<svg version="1.0" xmlns="http://www.w3.org/2000/svg"
 width="1280.000000pt" height="939.000000pt" viewBox="0 0 1280.000000 939.000000"
 preserveAspectRatio="xMidYMid meet">
<metadata>
Created by potrace 1.15, written by Peter Selinger 2001-2017
</metadata>
<g transform="translate(0.000000,939.000000) scale(0.100000,-0.100000)"
fill="#000000" stroke="none">
<path d="M3175 9114 c-88 -8 -195 -27 -285 -49 -52 -13 -151 -28 -220 -34
-159 -14 -288 -48 -416 -111 -98 -49 -103 -50 -191 -50 -157 0 -322 -57 -489
-171 -43 -29 -112 -68 -152 -85 -337 -148 -625 -442 -827 -844 -144 -288 -241
-611 -281 -942 -19 -159 -22 -512 -5 -673 78 -740 391 -1496 886 -2140 194
-251 697 -862 1289 -1564 l231 -273 7 -117 c4 -81 30 -238 85 -523 l79 -407
-125 -3 -126 -3 -9 -28 c-13 -36 2 -61 38 -65 14 -2 26 -5 26 -8 0 -3 23 -157
51 -342 49 -333 50 -337 80 -364 l29 -28 365 0 364 0 27 23 c26 22 28 36 78
365 49 333 52 343 76 355 16 8 26 23 28 40 6 48 -11 57 -104 57 -53 0 -84 4
-84 11 0 5 36 200 80 431 63 329 80 440 80 510 l0 89 130 139 c189 204 385
430 719 830 164 195 344 411 401 480 367 438 689 962 877 1425 25 61 69 170
99 243 94 233 161 491 201 772 25 177 24 641 -1 825 -52 379 -148 714 -262
911 -243 422 -513 712 -779 840 -49 24 -112 49 -140 55 -27 6 -70 22 -95 36
-172 94 -287 131 -435 139 -97 6 -104 8 -220 65 -66 32 -154 68 -195 79 -91
25 -229 36 -288 22 -38 -9 -53 -6 -121 18 -129 47 -345 76 -476 64z m-201
-7176 c4 -24 20 -189 37 -368 l30 -325 -27 -58 c-27 -56 -29 -58 -63 -55 l-35
3 -78 410 c-43 226 -78 416 -78 423 0 9 27 12 104 12 l105 0 5 -42z m246 -93
l0 -135 -40 0 c-59 0 -98 -24 -120 -72 l-18 -42 -6 35 c-3 19 -10 88 -16 154
-6 66 -13 137 -16 158 l-6 37 111 0 111 0 0 -135z m261 130 c6 -5 -57 -642
-66 -672 -9 -27 -25 -28 -85 -4 l-44 18 31 16 c55 29 96 111 110 217 9 75 -71
170 -143 170 l-34 0 0 123 c0 68 3 127 7 130 7 8 217 10 224 2z m239 -7 c1 -7
-34 -199 -77 -425 l-77 -413 -63 0 -63 0 0 45 c0 26 10 68 25 101 14 31 25 64
25 73 0 9 9 31 20 49 23 37 25 46 9 36 -8 -4 -9 1 -4 16 5 15 4 20 -4 16 -6
-4 -11 -3 -11 3 0 6 -7 8 -15 5 -9 -4 -15 -1 -15 7 0 25 41 454 46 477 4 21 9
22 104 22 73 0 100 -3 100 -12z m-650 -552 c0 -15 69 -86 84 -86 6 0 -9 -11
-33 -25 -23 -14 -45 -25 -46 -25 -2 0 -6 21 -10 48 -3 26 -7 62 -10 80 -2 19
0 30 6 27 5 -4 9 -12 9 -19z m338 -244 c2 -33 0 -42 -12 -42 -11 0 -16 9 -16
29 0 16 -3 37 -6 46 -5 13 -2 16 12 13 14 -2 20 -13 22 -46z"/>
<path d="M9402 9110 c-96 -10 -171 -24 -262 -50 -36 -10 -109 -21 -162 -24
-186 -12 -330 -50 -475 -125 -74 -38 -82 -40 -169 -40 -50 0 -111 -5 -135 -10
-112 -26 -258 -92 -364 -165 -33 -23 -116 -69 -185 -103 -161 -79 -279 -163
-411 -293 -345 -340 -592 -896 -661 -1485 -16 -141 -16 -549 0 -685 91 -748
380 -1448 861 -2085 177 -234 658 -818 1299 -1578 l252 -299 0 -89 c0 -69 18
-182 80 -511 44 -232 80 -426 80 -430 0 -4 -53 -8 -118 -8 -127 0 -142 -5
-142 -50 0 -31 17 -50 45 -50 20 0 23 -16 69 -328 26 -180 52 -340 58 -355 21
-55 35 -57 417 -57 362 0 385 2 410 42 10 16 111 638 111 685 0 6 10 13 23 15
18 2 23 10 25 45 4 49 0 51 -114 55 l-70 3 83 435 c64 338 83 455 83 524 l0
89 113 116 c144 148 394 435 740 849 150 180 322 386 382 457 365 435 712 996
888 1436 25 63 68 169 96 237 97 235 170 521 208 810 26 203 23 592 -6 807
-43 319 -145 693 -233 855 -271 497 -636 862 -943 940 -41 10 -108 39 -152 64
-129 75 -280 116 -424 116 -59 0 -74 4 -135 40 -179 102 -400 152 -539 121
-21 -5 -53 1 -106 20 -146 53 -351 76 -517 59z m-168 -7138 c2 -4 21 -176 40
-382 20 -206 38 -394 42 -417 l5 -43 -69 0 -68 0 -73 383 c-40 210 -75 401
-78 425 l-6 42 101 0 c55 0 103 -4 106 -8z m256 -417 l0 -425 -69 0 -69 0 -6
48 c-7 55 -76 771 -76 790 0 9 29 12 110 12 l110 0 0 -425z m260 408 c0 -25
-69 -761 -76 -800 l-5 -33 -74 0 -75 0 0 425 0 425 115 0 c103 0 115 -2 115
-17z m240 5 c-1 -7 -36 -197 -79 -423 l-78 -410 -67 -3 -67 -3 5 33 c3 18 22
204 41 413 20 209 38 386 40 393 3 8 33 12 105 12 73 0 100 -3 100 -12z"/>
</g>
</svg>
